<svg width="343" height="296" viewBox="0 0 343 296" fill="none" xmlns="http://www.w3.org/2000/svg">
<g opacity="0.7" filter="url(#filter0_f_3188_7971)">
<path d="M146.493 -48.1303L98.9825 -25.0685C76.4682 -14.1399 50.6954 -11.9701 26.6708 -18.9807C-39.8041 -38.3785 -105.612 13.4318 -102.357 82.6026L-100.628 119.344C-98.4738 165.134 -66.5932 204.113 -22.1409 215.307L12.8842 224.127C45.0157 232.219 79.0798 224.516 104.603 203.386L181.641 139.607C199.377 124.924 221.486 116.541 244.499 115.774L332.978 112.827C361.116 111.89 387.672 99.5842 406.578 78.7227L469.031 9.80952C501.56 -26.085 494.302 -82.5554 453.753 -109.057C427.744 -126.056 394.174 -126.183 368.037 -109.381L314.694 -75.0881C297.919 -64.3041 278.397 -58.5704 258.455 -58.5704L191.907 -58.5702C176.174 -58.5702 160.646 -55.0006 146.493 -48.1303Z" fill="#D9D9D9"/>
<path d="M146.493 -48.1303L98.9825 -25.0685C76.4682 -14.1399 50.6954 -11.9701 26.6708 -18.9807C-39.8041 -38.3785 -105.612 13.4318 -102.357 82.6026L-100.628 119.344C-98.4738 165.134 -66.5932 204.113 -22.1409 215.307L12.8842 224.127C45.0157 232.219 79.0798 224.516 104.603 203.386L181.641 139.607C199.377 124.924 221.486 116.541 244.499 115.774L332.978 112.827C361.116 111.89 387.672 99.5842 406.578 78.7227L469.031 9.80952C501.56 -26.085 494.302 -82.5554 453.753 -109.057C427.744 -126.056 394.174 -126.183 368.037 -109.381L314.694 -75.0881C297.919 -64.3041 278.397 -58.5704 258.455 -58.5704L191.907 -58.5702C176.174 -58.5702 160.646 -55.0006 146.493 -48.1303Z" fill="url(#paint0_linear_3188_7971)"/>
</g>
<defs>
<filter id="filter0_f_3188_7971" x="-170.473" y="-189.895" width="727.918" height="485.172" filterUnits="userSpaceOnUse" color-interpolation-filters="sRGB">
<feFlood flood-opacity="0" result="BackgroundImageFix"/>
<feBlend mode="normal" in="SourceGraphic" in2="BackgroundImageFix" result="shape"/>
<feGaussianBlur stdDeviation="34" result="effect1_foregroundBlur_3188_7971"/>
</filter>
<linearGradient id="paint0_linear_3188_7971" x1="447" y1="56.1018" x2="-73.1888" y2="156.939" gradientUnits="userSpaceOnUse">
<stop stop-color="#952CE6"/>
<stop offset="0.34" stop-color="#C74446"/>
<stop offset="0.635" stop-color="#F65A2E"/>
<stop offset="1" stop-color="#ECBF91"/>
</linearGradient>
</defs>
</svg>
